<?xml version="1.0" encoding="UTF-8"?>
<svg xmlns="http://www.w3.org/2000/svg" xmlns:xlink="http://www.w3.org/1999/xlink" width="20pt" height="20pt" viewBox="0 0 20 20" version="1.1">
<g id="surface1">
<path style=" stroke:none;fill-rule:evenodd;fill:rgb(0%,0%,0%);fill-opacity:1;" d="M 0 10 C 0 4.476562 4.476562 0 10 0 C 15.523438 0 20 4.476562 20 10 C 20 15.523438 15.523438 20 10 20 C 4.476562 20 0 15.523438 0 10 Z M 7.066406 8.28125 L 4.800781 8.28125 L 4.800781 15.089844 L 7.066406 15.089844 Z M 7.214844 6.175781 C 7.203125 5.507812 6.722656 5 5.949219 5 C 5.171875 5 4.667969 5.507812 4.667969 6.175781 C 4.667969 6.828125 5.160156 7.351562 5.917969 7.351562 L 5.933594 7.351562 C 6.722656 7.351562 7.214844 6.828125 7.214844 6.175781 Z M 15.238281 11.1875 C 15.238281 9.097656 14.121094 8.121094 12.628906 8.121094 C 11.425781 8.121094 10.886719 8.785156 10.585938 9.246094 L 10.585938 8.28125 L 8.320312 8.28125 C 8.351562 8.921875 8.320312 15.089844 8.320312 15.089844 L 10.585938 15.089844 L 10.585938 11.289062 C 10.585938 11.085938 10.601562 10.882812 10.664062 10.738281 C 10.828125 10.332031 11.199219 9.910156 11.824219 9.910156 C 12.644531 9.910156 12.972656 10.535156 12.972656 11.449219 L 12.972656 15.089844 L 15.238281 15.089844 Z M 15.238281 11.1875 "/>
</g>
</svg>
