<?xml version="1.0" encoding="UTF-8"?>
<svg xmlns="http://www.w3.org/2000/svg" xmlns:xlink="http://www.w3.org/1999/xlink" width="20pt" height="20pt" viewBox="0 0 20 20" version="1.1">
<g id="surface1">
<path style=" stroke:none;fill-rule:nonzero;fill:rgb(0%,0%,0%);fill-opacity:1;" d="M 10 20 C 15.523438 20 20 15.523438 20 10 C 20 4.476562 15.523438 0 10 0 C 4.476562 0 0 4.476562 0 10 C 0 15.523438 4.476562 20 10 20 Z M 4.574219 9.785156 L 14.21875 6.066406 C 14.664062 5.902344 15.054688 6.175781 14.910156 6.851562 L 13.269531 14.585938 C 13.148438 15.132812 12.824219 15.265625 12.367188 15.007812 L 9.867188 13.164062 L 8.660156 14.328125 C 8.527344 14.460938 8.414062 14.574219 8.15625 14.574219 L 8.335938 12.027344 L 12.96875 7.84375 C 13.167969 7.664062 12.921875 7.566406 12.65625 7.742188 L 6.929688 11.347656 L 4.460938 10.578125 C 3.925781 10.40625 3.914062 10.042969 4.574219 9.785156 Z M 4.574219 9.785156 "/>
</g>
</svg>
