<?xml version="1.0" encoding="UTF-8"?>
<svg xmlns="http://www.w3.org/2000/svg" xmlns:xlink="http://www.w3.org/1999/xlink" width="20pt" height="20pt" viewBox="0 0 20 20" version="1.1">
<g id="surface1">
<path style=" stroke:none;fill-rule:evenodd;fill:rgb(0%,0%,0%);fill-opacity:1;" d="M 0 10 C 0 4.476562 4.476562 0 10 0 C 15.523438 0 20 4.476562 20 10 C 20 15.523438 15.523438 20 10 20 C 4.476562 20 0 15.523438 0 10 Z M 10.523438 13.28125 C 10.523438 13.28125 10.714844 13.261719 10.8125 13.15625 C 10.90625 13.0625 10.902344 12.882812 10.902344 12.882812 C 10.902344 12.882812 10.890625 12.042969 11.285156 11.917969 C 11.675781 11.796875 12.179688 12.730469 12.714844 13.089844 C 13.117188 13.359375 13.421875 13.300781 13.421875 13.300781 L 14.847656 13.28125 C 14.847656 13.28125 15.589844 13.238281 15.238281 12.660156 C 15.210938 12.613281 15.03125 12.234375 14.179688 11.457031 C 13.285156 10.644531 13.40625 10.777344 14.480469 9.367188 C 15.136719 8.511719 15.398438 7.988281 15.316406 7.765625 C 15.238281 7.550781 14.757812 7.605469 14.757812 7.605469 L 13.152344 7.617188 C 13.152344 7.617188 13.035156 7.601562 12.945312 7.652344 C 12.859375 7.703125 12.804688 7.820312 12.804688 7.820312 C 12.804688 7.820312 12.550781 8.484375 12.210938 9.050781 C 11.496094 10.238281 11.210938 10.300781 11.09375 10.230469 C 10.824219 10.054688 10.890625 9.535156 10.890625 9.167969 C 10.890625 8.011719 11.070312 7.53125 10.542969 7.40625 C 10.371094 7.367188 10.242188 7.339844 9.796875 7.335938 C 9.222656 7.328125 8.738281 7.335938 8.464844 7.46875 C 8.28125 7.554688 8.140625 7.75 8.226562 7.761719 C 8.332031 7.777344 8.574219 7.828125 8.699219 7.996094 C 8.863281 8.214844 8.859375 8.707031 8.859375 8.707031 C 8.859375 8.707031 8.953125 10.066406 8.640625 10.234375 C 8.421875 10.351562 8.125 10.113281 7.488281 9.035156 C 7.164062 8.480469 6.917969 7.871094 6.917969 7.871094 C 6.917969 7.871094 6.871094 7.757812 6.785156 7.695312 C 6.683594 7.621094 6.539062 7.597656 6.539062 7.597656 L 5.015625 7.605469 C 5.015625 7.605469 4.785156 7.613281 4.703125 7.710938 C 4.625 7.796875 4.695312 7.976562 4.695312 7.976562 C 4.695312 7.976562 5.890625 10.71875 7.238281 12.097656 C 8.480469 13.363281 9.886719 13.28125 9.886719 13.28125 Z M 10.523438 13.28125 "/>
</g>
</svg>
